<svg width="168" height="35" viewBox="0 0 168 35" fill="none" xmlns="http://www.w3.org/2000/svg">
<path d="M20.7502 22.7399C20.997 22.8855 21.0721 23.209 20.9023 23.4397C19.6077 25.1986 17.7858 26.5593 15.6642 27.3437C13.3719 28.1912 10.8513 28.321 8.4747 27.714C6.09813 27.107 3.99165 25.7954 2.46649 23.973C0.941322 22.1505 0.0783558 19.9138 0.00508226 17.5934C-0.0681913 15.273 0.652114 12.9919 2.05958 11.0871C3.46705 9.1823 5.48703 7.75486 7.8211 7.01565C10.1552 6.27645 12.6795 6.26469 15.0212 6.98211C17.1887 7.64615 19.0933 8.90232 20.4966 10.5856C20.6804 10.8061 20.6245 11.1342 20.3861 11.2941L17.8494 12.9957C17.6291 13.1435 17.333 13.092 17.1592 12.8915C16.2705 11.8663 15.0859 11.1001 13.7437 10.6889C12.2456 10.23 10.6306 10.2375 9.13745 10.7104C7.64425 11.1833 6.35198 12.0965 5.45157 13.3151C4.55115 14.5336 4.09034 15.9929 4.13722 17.4774C4.1841 18.9619 4.73617 20.3928 5.71188 21.5587C6.68759 22.7246 8.03519 23.5637 9.55558 23.952C11.076 24.3403 12.6885 24.2572 14.155 23.7151C15.4679 23.2296 16.6014 22.3993 17.4238 21.327C17.5855 21.1161 17.8787 21.047 18.1077 21.182L20.7502 22.7399Z" fill="black"/>
<path d="M9.59106 4.5C9.59106 4.22386 9.81492 4 10.0911 4H13.2015C13.4777 4 13.7015 4.22386 13.7015 4.5V8.725H9.59106V4.5Z" fill="black"/>
<path d="M9.59106 26.275H13.7015V30.5C13.7015 30.7761 13.4777 31 13.2015 31H10.0911C9.81492 31 9.59106 30.7761 9.59106 30.5V26.275Z" fill="black"/>
<path d="M42.048 15.5469H38.9372C38.8803 15.1444 38.7643 14.7869 38.5892 14.4744C38.414 14.1572 38.1891 13.8873 37.9144 13.6648C37.6398 13.4422 37.3226 13.2718 36.9627 13.1534C36.6076 13.035 36.2217 12.9759 35.8051 12.9759C35.0522 12.9759 34.3964 13.1629 33.8377 13.5369C33.279 13.9062 32.8458 14.446 32.538 15.1562C32.2303 15.8617 32.0764 16.7187 32.0764 17.7273C32.0764 18.7642 32.2303 19.6354 32.538 20.3409C32.8505 21.0464 33.2861 21.5791 33.8448 21.9389C34.4035 22.2988 35.0499 22.4787 35.7838 22.4787C36.1957 22.4787 36.5768 22.4242 36.9272 22.3153C37.2823 22.2064 37.5972 22.0478 37.8718 21.8395C38.1464 21.6264 38.3737 21.3684 38.5536 21.0653C38.7383 20.7623 38.8661 20.4167 38.9372 20.0284L42.048 20.0426C41.9675 20.7102 41.7662 21.3542 41.4443 21.9744C41.127 22.59 40.6985 23.1416 40.1588 23.6293C39.6237 24.1122 38.9845 24.4957 38.2411 24.7798C37.5025 25.0592 36.6668 25.1989 35.734 25.1989C34.4367 25.1989 33.2767 24.9053 32.2539 24.3182C31.2359 23.7311 30.431 22.8812 29.8392 21.7685C29.252 20.6558 28.9585 19.3087 28.9585 17.7273C28.9585 16.1411 29.2568 14.7917 29.8534 13.679C30.45 12.5663 31.2596 11.7187 32.2823 11.1364C33.3051 10.5492 34.4556 10.2557 35.734 10.2557C36.5768 10.2557 37.3581 10.3741 38.0778 10.6108C38.8022 10.8475 39.4438 11.1932 40.0025 11.6477C40.5612 12.0975 41.0158 12.6491 41.3661 13.3026C41.7213 13.956 41.9485 14.7041 42.048 15.5469ZM43.5964 25V14.0909H46.5296V15.9943H46.6433C46.8421 15.3172 47.1759 14.8059 47.6447 14.4602C48.1134 14.1098 48.6532 13.9347 49.264 13.9347C49.4155 13.9347 49.5789 13.9441 49.7541 13.9631C49.9293 13.982 50.0831 14.008 50.2157 14.0412V16.7259C50.0737 16.6832 49.8772 16.6454 49.6262 16.6122C49.3753 16.5791 49.1456 16.5625 48.9373 16.5625C48.4922 16.5625 48.0945 16.6596 47.7441 16.8537C47.3985 17.0431 47.1239 17.3082 46.9203 17.6491C46.7214 17.9901 46.622 18.383 46.622 18.8281V25H43.5964ZM53.3799 29.0909C52.9964 29.0909 52.6366 29.0601 52.3004 28.9986C51.9689 28.9418 51.6943 28.8684 51.4765 28.7784L52.1583 26.5199C52.5134 26.6288 52.833 26.688 53.1171 26.6974C53.406 26.7069 53.6545 26.6406 53.8629 26.4986C54.0759 26.3565 54.2488 26.1151 54.3813 25.7741L54.5589 25.3125L50.6455 14.0909H53.8274L56.0859 22.1023H56.1995L58.4794 14.0909H61.6825L57.4424 26.179C57.2388 26.7661 56.9618 27.2775 56.6115 27.7131C56.2658 28.1534 55.8278 28.492 55.2975 28.7287C54.7672 28.9702 54.128 29.0909 53.3799 29.0909ZM62.6308 29.0909V14.0909H65.6137V15.9233H65.7487C65.8812 15.6297 66.073 15.3314 66.324 15.0284C66.5796 14.7206 66.9111 14.465 67.3183 14.2614C67.7302 14.053 68.2416 13.9489 68.8524 13.9489C69.6478 13.9489 70.3817 14.1572 71.0541 14.5739C71.7264 14.9858 72.2638 15.6084 72.6663 16.4418C73.0687 17.2704 73.27 18.3097 73.27 19.5597C73.27 20.7765 73.0735 21.804 72.6805 22.642C72.2922 23.4754 71.7619 24.1075 71.0896 24.5384C70.422 24.9645 69.6739 25.1776 68.8453 25.1776C68.2581 25.1776 67.7586 25.0805 67.3467 24.8864C66.9395 24.6922 66.6057 24.4484 66.3453 24.1548C66.0848 23.8565 65.886 23.5559 65.7487 23.2528H65.6563V29.0909H62.6308ZM65.5924 19.5455C65.5924 20.1941 65.6824 20.7599 65.8623 21.2429C66.0422 21.7259 66.3027 22.1023 66.6436 22.3722C66.9845 22.6373 67.3988 22.7699 67.8865 22.7699C68.3789 22.7699 68.7955 22.6349 69.1365 22.3651C69.4774 22.0904 69.7354 21.7116 69.9106 21.2287C70.0905 20.741 70.1805 20.1799 70.1805 19.5455C70.1805 18.9157 70.0929 18.3617 69.9177 17.8835C69.7425 17.4053 69.4845 17.0312 69.1436 16.7614C68.8027 16.4915 68.3836 16.3565 67.8865 16.3565C67.394 16.3565 66.9774 16.4867 66.6365 16.7472C66.3003 17.0076 66.0422 17.3769 65.8623 17.8551C65.6824 18.3333 65.5924 18.8968 65.5924 19.5455ZM80.4896 14.0909V16.3636H73.92V14.0909H80.4896ZM75.4115 11.4773H78.437V21.6477C78.437 21.9271 78.4796 22.1449 78.5649 22.3011C78.6501 22.4527 78.7685 22.5592 78.92 22.6207C79.0762 22.6823 79.2562 22.7131 79.4598 22.7131C79.6018 22.7131 79.7438 22.7012 79.8859 22.6776C80.0279 22.6491 80.1368 22.6278 80.2126 22.6136L80.6884 24.8651C80.5369 24.9124 80.3239 24.9669 80.0492 25.0284C79.7746 25.0947 79.4408 25.1349 79.0478 25.1491C78.3187 25.1776 77.6794 25.0805 77.1302 24.858C76.5857 24.6354 76.1619 24.2898 75.8589 23.821C75.5559 23.3523 75.4067 22.7604 75.4115 22.0455V11.4773ZM86.6723 25.2131C85.569 25.2131 84.615 24.9787 83.81 24.5099C83.0098 24.0365 82.3919 23.3783 81.9563 22.5355C81.5207 21.688 81.3029 20.7055 81.3029 19.5881C81.3029 18.4612 81.5207 17.4763 81.9563 16.6335C82.3919 15.786 83.0098 15.1278 83.81 14.6591C84.615 14.1856 85.569 13.9489 86.6723 13.9489C87.7755 13.9489 88.7272 14.1856 89.5274 14.6591C90.3323 15.1278 90.9526 15.786 91.3882 16.6335C91.8238 17.4763 92.0416 18.4612 92.0416 19.5881C92.0416 20.7055 91.8238 21.688 91.3882 22.5355C90.9526 23.3783 90.3323 24.0365 89.5274 24.5099C88.7272 24.9787 87.7755 25.2131 86.6723 25.2131ZM86.6865 22.8693C87.1884 22.8693 87.6074 22.7273 87.9436 22.4432C88.2797 22.1544 88.533 21.7614 88.7035 21.2642C88.8787 20.767 88.9663 20.2012 88.9663 19.5668C88.9663 18.9323 88.8787 18.3665 88.7035 17.8693C88.533 17.3722 88.2797 16.9792 87.9436 16.6903C87.6074 16.4015 87.1884 16.2571 86.6865 16.2571C86.1798 16.2571 85.7537 16.4015 85.408 16.6903C85.0671 16.9792 84.8091 17.3722 84.6339 17.8693C84.4634 18.3665 84.3782 18.9323 84.3782 19.5668C84.3782 20.2012 84.4634 20.767 84.6339 21.2642C84.8091 21.7614 85.0671 22.1544 85.408 22.4432C85.7537 22.7273 86.1798 22.8693 86.6865 22.8693ZM96.9407 12.9901V10.4545H108.887V12.9901H104.434V25H101.394V12.9901H96.9407ZM109.064 25V14.0909H111.998V15.9943H112.111C112.31 15.3172 112.644 14.8059 113.113 14.4602C113.581 14.1098 114.121 13.9347 114.732 13.9347C114.883 13.9347 115.047 13.9441 115.222 13.9631C115.397 13.982 115.551 14.008 115.684 14.0412V16.7259C115.542 16.6832 115.345 16.6454 115.094 16.6122C114.843 16.5791 114.614 16.5625 114.405 16.5625C113.96 16.5625 113.562 16.6596 113.212 16.8537C112.866 17.0431 112.592 17.3082 112.388 17.6491C112.189 17.9901 112.09 18.383 112.09 18.8281V25H109.064ZM119.446 25.206C118.75 25.206 118.13 25.0852 117.585 24.8438C117.041 24.5975 116.61 24.2353 116.293 23.7571C115.98 23.2741 115.824 22.6728 115.824 21.9531C115.824 21.3471 115.935 20.8381 116.158 20.4261C116.38 20.0142 116.683 19.6828 117.067 19.4318C117.451 19.1809 117.886 18.9915 118.374 18.8636C118.866 18.7358 119.382 18.6458 119.922 18.5938C120.557 18.5275 121.068 18.4659 121.456 18.4091C121.844 18.3475 122.126 18.2576 122.301 18.1392C122.477 18.0208 122.564 17.8456 122.564 17.6136V17.571C122.564 17.1212 122.422 16.7732 122.138 16.527C121.859 16.2808 121.461 16.1577 120.945 16.1577C120.4 16.1577 119.967 16.2784 119.645 16.5199C119.323 16.7566 119.11 17.0549 119.006 17.4148L116.208 17.1875C116.35 16.5246 116.629 15.9517 117.046 15.4688C117.462 14.9811 118 14.607 118.658 14.3466C119.321 14.0814 120.088 13.9489 120.959 13.9489C121.565 13.9489 122.145 14.0199 122.699 14.1619C123.258 14.304 123.753 14.5241 124.183 14.8224C124.619 15.1207 124.962 15.5043 125.213 15.973C125.464 16.437 125.59 16.9934 125.59 17.642V25H122.72V23.4872H122.635C122.46 23.8281 122.226 24.1288 121.932 24.3892C121.638 24.6449 121.286 24.8461 120.874 24.9929C120.462 25.1349 119.986 25.206 119.446 25.206ZM120.313 23.1179C120.758 23.1179 121.151 23.0303 121.492 22.8551C121.833 22.6752 122.1 22.4337 122.294 22.1307C122.488 21.8277 122.585 21.4844 122.585 21.1009V19.9432C122.491 20.0047 122.361 20.0616 122.195 20.1136C122.034 20.161 121.852 20.206 121.648 20.2486C121.444 20.2865 121.241 20.322 121.037 20.3551C120.834 20.3835 120.649 20.4096 120.483 20.4332C120.128 20.4853 119.818 20.5682 119.553 20.6818C119.288 20.7955 119.082 20.9493 118.935 21.1435C118.788 21.3329 118.715 21.5696 118.715 21.8537C118.715 22.2656 118.864 22.5805 119.162 22.7983C119.465 23.0114 119.849 23.1179 120.313 23.1179ZM132.266 25.2131C131.149 25.2131 130.187 24.9763 129.382 24.5028C128.582 24.0246 127.967 23.3617 127.536 22.5142C127.11 21.6667 126.897 20.6913 126.897 19.5881C126.897 18.4706 127.112 17.4905 127.543 16.6477C127.979 15.8002 128.596 15.1397 129.397 14.6662C130.197 14.188 131.149 13.9489 132.252 13.9489C133.204 13.9489 134.037 14.1217 134.752 14.4673C135.467 14.813 136.033 15.2983 136.449 15.9233C136.866 16.5483 137.096 17.2822 137.138 18.125H134.283C134.203 17.5805 133.989 17.1425 133.644 16.8111C133.303 16.4749 132.855 16.3068 132.302 16.3068C131.833 16.3068 131.423 16.4347 131.073 16.6903C130.727 16.9413 130.457 17.3082 130.263 17.7912C130.069 18.2741 129.972 18.8589 129.972 19.5455C129.972 20.2415 130.067 20.8333 130.256 21.321C130.45 21.8087 130.722 22.1804 131.073 22.4361C131.423 22.6918 131.833 22.8196 132.302 22.8196C132.647 22.8196 132.957 22.7486 133.232 22.6065C133.511 22.4645 133.741 22.2585 133.921 21.9886C134.105 21.714 134.226 21.3849 134.283 21.0014H137.138C137.091 21.8348 136.864 22.5687 136.456 23.2031C136.054 23.8329 135.498 24.3253 134.787 24.6804C134.077 25.0355 133.237 25.2131 132.266 25.2131ZM141.217 21.8608L141.224 18.2315H141.664L145.159 14.0909H148.632L143.937 19.5739H143.22L141.217 21.8608ZM138.475 25V10.4545H141.501V25H138.475ZM145.293 25L142.083 20.2486L144.1 18.1108L148.838 25H145.293ZM154.038 25.2131C152.916 25.2131 151.95 24.9858 151.141 24.5312C150.336 24.072 149.715 23.4233 149.28 22.5852C148.844 21.7424 148.626 20.7457 148.626 19.5952C148.626 18.473 148.844 17.4882 149.28 16.6406C149.715 15.7931 150.329 15.1326 151.119 14.6591C151.915 14.1856 152.847 13.9489 153.918 13.9489C154.637 13.9489 155.307 14.0649 155.928 14.2969C156.553 14.5241 157.097 14.8674 157.561 15.3267C158.03 15.786 158.394 16.3636 158.655 17.0597C158.915 17.7509 159.045 18.5606 159.045 19.4886V20.3196H149.834V18.4446H156.197C156.197 18.009 156.103 17.6231 155.913 17.2869C155.724 16.9508 155.461 16.688 155.125 16.4986C154.794 16.3045 154.408 16.2074 153.967 16.2074C153.508 16.2074 153.101 16.3139 152.746 16.527C152.395 16.7353 152.121 17.017 151.922 17.3722C151.723 17.7225 151.621 18.1132 151.616 18.544V20.3267C151.616 20.8665 151.716 21.3329 151.915 21.7259C152.118 22.1188 152.405 22.4219 152.774 22.6349C153.143 22.848 153.581 22.9545 154.088 22.9545C154.424 22.9545 154.732 22.9072 155.011 22.8125C155.291 22.7178 155.53 22.5758 155.729 22.3864C155.928 22.197 156.079 21.965 156.183 21.6903L158.981 21.875C158.839 22.5473 158.548 23.1345 158.108 23.6364C157.672 24.1335 157.109 24.5218 156.418 24.8011C155.731 25.0758 154.938 25.2131 154.038 25.2131ZM160.42 25V14.0909H163.353V15.9943H163.467C163.666 15.3172 163.999 14.8059 164.468 14.4602C164.937 14.1098 165.477 13.9347 166.087 13.9347C166.239 13.9347 166.402 13.9441 166.578 13.9631C166.753 13.982 166.907 14.008 167.039 14.0412V16.7259C166.897 16.6832 166.701 16.6454 166.45 16.6122C166.199 16.5791 165.969 16.5625 165.761 16.5625C165.316 16.5625 164.918 16.6596 164.568 16.8537C164.222 17.0431 163.947 17.3082 163.744 17.6491C163.545 17.9901 163.445 18.383 163.445 18.8281V25H160.42Z" fill="black"/>
</svg>
